<svg width="188" height="187" viewBox="0 0 188 187" fill="none" xmlns="http://www.w3.org/2000/svg">
<g filter="url(#filter0_d_391_469)">
<rect x="44" y="43.7109" width="100" height="100" rx="12" fill="white"/>
<path d="M114.201 68.2109H73.7923C71.0865 68.2109 68.8906 70.4408 68.8906 73.1919V114.23C68.8906 116.978 71.0865 119.211 73.7923 119.211H114.201C116.91 119.211 119.103 116.981 119.103 114.23V73.1919C119.103 70.4436 116.91 68.2109 114.201 68.2109ZM98.0173 96.4989H91.7415V114.729H86.7406V96.4989H80.462V92.4161H98.0173V96.4989ZM114.201 111.45C113.807 112.349 113.133 113.014 112.337 113.544C111.493 114.066 110.563 114.436 109.591 114.638C108.495 114.869 107.377 114.983 106.257 114.978C105.106 114.981 103.957 114.877 102.825 114.666C101.837 114.492 100.879 114.177 99.9808 113.731V108.946L99.7938 108.796L99.9808 108.753V108.946C100.814 109.62 101.732 110.135 102.735 110.49C103.718 110.867 104.795 111.057 105.874 111.057C106.56 111.057 107.081 110.997 107.543 110.887C107.958 110.792 108.355 110.631 108.719 110.411C109.009 110.235 109.248 109.988 109.416 109.694C109.589 109.366 109.667 108.997 109.641 108.627C109.615 108.258 109.486 107.903 109.268 107.603C109.004 107.228 108.671 106.906 108.288 106.654C107.826 106.327 107.333 106.047 106.815 105.818C106.228 105.549 105.63 105.268 104.953 104.99C103.284 104.194 101.97 103.398 101.128 102.299C100.275 101.307 99.8533 100.009 99.8533 98.5163C99.8533 97.3206 100.08 96.3629 100.539 95.5271C101.029 94.6318 101.607 93.9744 102.403 93.4361C103.188 92.8893 104.069 92.4898 105.149 92.2404C106.225 91.9911 107.308 91.8636 108.484 91.8636C109.659 91.8636 110.643 91.9316 111.524 92.0704C112.405 92.2121 113.229 92.4303 113.975 92.7193V97.3999C113.608 97.131 113.214 96.9012 112.799 96.7143C111.921 96.3336 110.997 96.0716 110.05 95.9351C109.628 95.872 109.202 95.8407 108.775 95.8416C108.249 95.8346 107.723 95.8888 107.209 96.0031C106.792 96.0861 106.394 96.2404 106.03 96.4593C105.734 96.6362 105.482 96.8785 105.293 97.1676C105.118 97.4446 105.026 97.7663 105.03 98.0941C105.03 98.4605 105.128 98.792 105.324 99.0886C105.519 99.3757 105.798 99.6553 106.16 99.9273C106.483 100.185 106.925 100.446 107.435 100.704C108.022 100.961 108.552 101.222 109.2 101.491C110.082 101.868 110.866 102.287 111.552 102.687C112.241 103.084 112.819 103.551 113.317 104.081C113.847 104.577 114.23 105.177 114.496 105.874C114.762 106.571 114.898 107.356 114.898 108.263C114.898 109.558 114.592 110.555 114.201 111.45Z" fill="#0066FF"/>
</g>
<defs>
<filter id="filter0_d_391_469" x="0.799999" y="0.510937" width="186.4" height="186.4" filterUnits="userSpaceOnUse" color-interpolation-filters="sRGB">
<feFlood flood-opacity="0" result="BackgroundImageFix"/>
<feColorMatrix in="SourceAlpha" type="matrix" values="0 0 0 0 0 0 0 0 0 0 0 0 0 0 0 0 0 0 127 0" result="hardAlpha"/>
<feOffset/>
<feGaussianBlur stdDeviation="21.6"/>
<feComposite in2="hardAlpha" operator="out"/>
<feColorMatrix type="matrix" values="0 0 0 0 0.853333 0 0 0 0 0.853333 0 0 0 0 0.853333 0 0 0 0.25 0"/>
<feBlend mode="normal" in2="BackgroundImageFix" result="effect1_dropShadow_391_469"/>
<feBlend mode="normal" in="SourceGraphic" in2="effect1_dropShadow_391_469" result="shape"/>
</filter>
</defs>
</svg>
