<svg width="188" height="187" viewBox="0 0 188 187" fill="none" xmlns="http://www.w3.org/2000/svg">
<g filter="url(#filter0_d_391_484)">
<rect x="44" y="43.7109" width="100" height="100" rx="12" fill="white"/>
<path d="M94 64.9531C93.235 64.9531 92.4417 65.1515 91.79 65.5198L70.71 77.7031C69.35 78.4965 68.5 79.9698 68.5 81.5565V105.866C68.5 107.453 69.35 108.926 70.71 109.72L76.235 112.893C78.9267 114.196 79.8333 114.225 81.08 114.225C85.0467 114.225 87.3417 111.816 87.3417 107.623V83.6248C87.3417 83.2848 87.0583 83.0015 86.7183 83.0015H84.0833C83.715 83.0015 83.4317 83.2848 83.4317 83.6248V107.623C83.4317 109.493 81.505 111.335 78.4167 109.776L72.6083 106.461C72.5129 106.394 72.4349 106.305 72.3807 106.202C72.3265 106.098 72.2977 105.983 72.2967 105.866V81.5565C72.2967 81.3015 72.41 81.0748 72.6083 80.9615L93.6883 68.8065C93.8583 68.6931 94.1417 68.6931 94.3117 68.8065L115.392 80.9615C115.59 81.0748 115.703 81.3015 115.703 81.5565V105.866C115.703 106.093 115.59 106.32 115.392 106.461L94.3117 118.616C94.1417 118.73 93.8583 118.73 93.66 118.616L88.3333 115.386C88.1067 115.301 87.88 115.273 87.7383 115.358C86.2367 116.208 85.9533 116.378 84.565 116.803C84.225 116.916 83.6867 117.115 84.7633 117.71L91.79 121.875C92.47 122.271 93.2067 122.47 94 122.47C94.7933 122.47 95.53 122.271 96.21 121.875L117.29 109.72C118.65 108.926 119.5 107.453 119.5 105.866V81.5565C119.5 79.9698 118.65 78.4965 117.29 77.7031L96.21 65.5198C95.5583 65.1515 94.7933 64.9531 94 64.9531ZM99.6667 82.3781C93.66 82.3781 90.0617 84.8998 90.0617 89.1498C90.0617 93.7115 93.6317 95.0431 99.4117 95.6098C106.297 96.2898 106.835 97.3098 106.835 98.6698C106.835 101.021 104.937 102.013 100.517 102.013C94.9067 102.013 93.7167 100.625 93.2917 97.8481C93.2618 97.7046 93.1837 97.5757 93.0702 97.4829C92.9568 97.39 92.8149 97.3389 92.6683 97.3381H89.9483C89.6083 97.3381 89.3533 97.5931 89.3533 97.9615C89.3533 101.475 91.28 105.725 100.517 105.725C107.175 105.725 111 103.09 111 98.4998C111 93.9381 107.94 92.7481 101.452 91.8698C94.9067 91.0198 94.255 90.5665 94.255 89.0365C94.255 87.7615 94.8217 86.0615 99.6667 86.0615C103.917 86.0615 105.588 86.9965 106.24 89.9148C106.297 90.1981 106.552 90.3965 106.835 90.3965H109.583C109.725 90.3965 109.895 90.3398 110.008 90.1981C110.122 90.0848 110.207 89.9148 110.15 89.7448C109.753 84.7015 106.41 82.3781 99.6667 82.3781Z" fill="#0066FF"/>
</g>
<defs>
<filter id="filter0_d_391_484" x="0.799999" y="0.510937" width="186.4" height="186.4" filterUnits="userSpaceOnUse" color-interpolation-filters="sRGB">
<feFlood flood-opacity="0" result="BackgroundImageFix"/>
<feColorMatrix in="SourceAlpha" type="matrix" values="0 0 0 0 0 0 0 0 0 0 0 0 0 0 0 0 0 0 127 0" result="hardAlpha"/>
<feOffset/>
<feGaussianBlur stdDeviation="21.6"/>
<feComposite in2="hardAlpha" operator="out"/>
<feColorMatrix type="matrix" values="0 0 0 0 0.853333 0 0 0 0 0.853333 0 0 0 0 0.853333 0 0 0 0.25 0"/>
<feBlend mode="normal" in2="BackgroundImageFix" result="effect1_dropShadow_391_484"/>
<feBlend mode="normal" in="SourceGraphic" in2="effect1_dropShadow_391_484" result="shape"/>
</filter>
</defs>
</svg>
