<svg width="188" height="187" viewBox="0 0 188 187" fill="none" xmlns="http://www.w3.org/2000/svg">
<g filter="url(#filter0_d_391_475)">
<rect x="44" y="43.7109" width="100" height="100" rx="12" fill="white"/>
<path d="M121.118 86.4265C120.115 82.5874 118.285 79.5699 114.445 79.5699H109.331V85.6049C109.331 90.2657 105.308 94.1955 101.013 94.1955H87.387C83.6414 94.1955 80.7145 97.3972 80.7145 101.143V114.035C80.7145 117.596 83.9162 119.792 87.387 120.979C91.5945 122.26 95.7057 122.535 100.916 120.979C104.299 119.973 107.592 118.055 107.592 114.032V108.912H94.153V107.269H114.445C118.285 107.269 119.84 104.526 121.118 100.412C122.489 95.9324 122.489 91.8184 121.118 86.4265ZM101.738 112.02C103.112 112.02 104.299 113.21 104.299 114.581C104.299 115.953 103.109 117.14 101.741 117.14C100.369 117.231 99.1794 115.95 99.1794 114.581C99.0887 113.21 100.276 112.02 101.741 112.02M86.7524 92.4587H100.282C104.027 92.4587 106.954 89.3505 106.954 85.5114V72.8039C106.954 69.2395 103.846 66.4969 100.279 65.8565C95.802 65.219 90.8635 65.219 86.7524 65.8565C80.9922 66.8624 80.077 68.9647 80.077 72.8039V77.9237H93.6062V79.567H75.1385C71.2994 79.567 67.8257 82.0377 66.8199 86.4237C65.5392 91.5435 65.5392 94.7424 66.8199 100.046C67.8257 104.07 70.0215 106.903 74.042 106.903H78.4309V100.777C78.3374 96.2979 82.27 92.4587 86.7495 92.4587M85.9279 74.45C85.2534 74.4363 84.6102 74.1624 84.1329 73.6856C83.6556 73.2089 83.381 72.566 83.3665 71.8915C83.3665 70.5202 84.5565 69.3302 85.925 69.3302C87.2935 69.3302 88.4864 70.5202 88.4864 71.8915C88.4864 73.2629 87.2992 74.45 85.9279 74.45Z" fill="#0066FF"/>
</g>
<defs>
<filter id="filter0_d_391_475" x="0.799999" y="0.510937" width="186.4" height="186.4" filterUnits="userSpaceOnUse" color-interpolation-filters="sRGB">
<feFlood flood-opacity="0" result="BackgroundImageFix"/>
<feColorMatrix in="SourceAlpha" type="matrix" values="0 0 0 0 0 0 0 0 0 0 0 0 0 0 0 0 0 0 127 0" result="hardAlpha"/>
<feOffset/>
<feGaussianBlur stdDeviation="21.6"/>
<feComposite in2="hardAlpha" operator="out"/>
<feColorMatrix type="matrix" values="0 0 0 0 0.853333 0 0 0 0 0.853333 0 0 0 0 0.853333 0 0 0 0.25 0"/>
<feBlend mode="normal" in2="BackgroundImageFix" result="effect1_dropShadow_391_475"/>
<feBlend mode="normal" in="SourceGraphic" in2="effect1_dropShadow_391_475" result="shape"/>
</filter>
</defs>
</svg>
