<svg width="188" height="187" viewBox="0 0 188 187" fill="none" xmlns="http://www.w3.org/2000/svg">
<g filter="url(#filter0_d_391_480)">
<rect x="44" y="43.7109" width="100" height="100" rx="12" fill="white"/>
<g clip-path="url(#clip0_391_480)">
<path d="M62.0995 114.578H85.7862C85.7862 114.578 81.2585 93.9204 96.2497 85.5564L96.6293 85.3694C100.273 83.5646 110.532 78.4816 126.952 90.6224C127.49 90.1719 128 89.8121 128 89.8121C128 89.8121 112.408 74.2514 95.0483 75.9911C86.3245 76.7703 75.5918 84.7149 69.2933 95.2096C62.9948 105.704 62.0995 114.578 62.0995 114.578ZM87.0442 112.36C86.8476 111.109 86.7275 109.848 86.6843 108.583L89.9228 109.75C90.1013 111.161 90.3733 112.479 90.6425 113.649L87.0442 112.36ZM64.947 100.128L61.4988 98.8674C60.9293 100.157 60.3003 101.655 60 102.466L63.4482 103.724C63.8363 102.707 64.4682 101.236 64.947 100.128ZM87.1348 100.967L89.563 102.885C89.682 101.716 89.8917 100.547 90.192 99.3774L88.033 97.6689C87.6448 98.7768 87.3728 99.8874 87.1348 100.967ZM92.9205 93.4699L91.4812 91.3109C92.0223 90.6224 92.6513 89.9339 93.3398 89.3021L94.6885 91.3421C94.0423 92.0022 93.451 92.7138 92.9205 93.4699ZM71.8717 84.8651L74.0023 86.7238C73.2827 87.4746 72.5913 88.2849 71.9623 89.0924L69.6532 87.1148C70.3445 86.3639 71.0925 85.6159 71.8717 84.8651ZM99.6355 87.7749L98.947 85.7066C99.6978 85.3751 100.565 85.0464 101.585 84.7461L102.245 86.7238C101.351 87.0119 100.479 87.3632 99.6355 87.7749ZM108.481 85.9163L108.6 84.0264C109.561 84.0859 110.549 84.2078 111.569 84.4174L111.451 86.2761C110.473 86.0691 109.48 85.9487 108.481 85.9163ZM85.3357 77.8214L83.987 75.7503C83.2362 76.1413 82.457 76.5606 81.6467 77.0394L83.0265 79.1389C83.8057 78.6601 84.5565 78.2096 85.3357 77.8214ZM111.451 77.6713L111.569 75.6624C111.3 75.5123 110.549 75.1524 108.662 74.6113L108.541 76.5918C109.529 76.9204 110.49 77.2803 111.451 77.6713ZM97.5077 74.6708H97.808L97.2073 72.8433C96.278 72.8433 95.3184 72.9028 94.3287 73.0218L94.8982 74.7926C95.7653 74.7074 96.6363 74.6668 97.5077 74.6708Z" fill="#0066FF"/>
</g>
</g>
<defs>
<filter id="filter0_d_391_480" x="0.799999" y="0.510937" width="186.4" height="186.4" filterUnits="userSpaceOnUse" color-interpolation-filters="sRGB">
<feFlood flood-opacity="0" result="BackgroundImageFix"/>
<feColorMatrix in="SourceAlpha" type="matrix" values="0 0 0 0 0 0 0 0 0 0 0 0 0 0 0 0 0 0 127 0" result="hardAlpha"/>
<feOffset/>
<feGaussianBlur stdDeviation="21.6"/>
<feComposite in2="hardAlpha" operator="out"/>
<feColorMatrix type="matrix" values="0 0 0 0 0.853333 0 0 0 0 0.853333 0 0 0 0 0.853333 0 0 0 0.25 0"/>
<feBlend mode="normal" in2="BackgroundImageFix" result="effect1_dropShadow_391_480"/>
<feBlend mode="normal" in="SourceGraphic" in2="effect1_dropShadow_391_480" result="shape"/>
</filter>
<clipPath id="clip0_391_480">
<rect width="68" height="68" fill="white" transform="translate(60 59.7109)"/>
</clipPath>
</defs>
</svg>
